# xmcd
#
# Track frame offsets:
# 150
# 18905
# 37535
# 55482
# 76705
# 95014
# 117633
# 143170
# 168587
#
# Disc length: 2522 seconds
#
#
# Revision: 2
# Processed by: cddbd v1.5.2PL0 Copyright (c) Steve Scherf et al.
# Submitted via: FreeRIP 2.945 
#
DISCID=6c09d809
DTITLE=Atlantic Starr - As The Band Turns
DYEAR=1995
DGENRE=R&B
TTITLE0=Freak-A-Ristic
TTITLE1=Cool, Calm Collected
TTITLE2=One Love
TTITLE3=In The Heat Of Pashion
TTITLE4=If Your Heart Isn't In It
TTITLE5=Silver Shadow
TTITLE6=Let's Start It Over
TTITLE7=Secret Lovers
TTITLE8=Thank You
EXTD=
EXTT0=
EXTT1=
EXTT2=
EXTT3=
EXTT4=
EXTT5=
EXTT6=
EXTT7=
EXTT8=
PLAYORDER=
